<svg xmlns="http://www.w3.org/2000/svg" viewBox="0 0 496.64 93.21"><defs><style>.cls-1,.cls-3{fill:#fff;}.cls-1{stroke:#fff;stroke-miterlimit:10;}.cls-2{fill:#3db692;}.cls-4{fill:#ec1c24;}</style></defs><title>Furniture Bank Logo</title><g id="Layer_3" data-name="Layer 3"><rect class="cls-1" x="0.34" y="-0.46" width="496" height="94"/></g><g id="Layer_1" data-name="Layer 1"><path class="cls-2" d="M346,43.47a4,4,0,0,0,2-1.61,4.58,4.58,0,0,0,.6-2.34,4.29,4.29,0,0,0-.69-2.43,4.16,4.16,0,0,0-2.37-1.58A8.08,8.08,0,0,0,344,35.3c-.62-.06-1.38,0-2.3,0h-5.48v8.65h6A10.69,10.69,0,0,0,346,43.47Z"/><path class="cls-2" d="M261.93,42.94a5.64,5.64,0,0,0,.73-2.87,5.05,5.05,0,0,0-.58-2.46,3.91,3.91,0,0,0-2-1.68,8.34,8.34,0,0,0-2.27-.53,26.12,26.12,0,0,0-3.37-.11h-4.82V45.94h3.43a27,27,0,0,0,3.67-.32,11.87,11.87,0,0,0,2.54-.64A5,5,0,0,0,261.93,42.94Z"/><path class="cls-2" d="M346.8,49.75a9.43,9.43,0,0,0-1.75-.36c-.67-.06-1.53-.12-2.57-.12h-6.29v10h4.43c1.1,0,2-.14,2.83-.2a12.18,12.18,0,0,0,2-.36,8.31,8.31,0,0,0,2.19-.79,5.17,5.17,0,0,0,1.41-1.09,3.53,3.53,0,0,0,.77-1.35,5,5,0,0,0,.23-1.56,4.13,4.13,0,0,0-.79-2.52A4.75,4.75,0,0,0,346.8,49.75Z"/><path class="cls-2" d="M108.84,42.94a5.55,5.55,0,0,0,.74-2.87,5.17,5.17,0,0,0-.58-2.46,4,4,0,0,0-2-1.68,8.44,8.44,0,0,0-2.27-.53,26.19,26.19,0,0,0-3.37-.11H97.2V45.94H100a26.8,26.8,0,0,0,3.67-.32A11.72,11.72,0,0,0,106.2,45,5,5,0,0,0,108.84,42.94Z"/><path class="cls-2" d="M0,0V93.21H496.64V0ZM384.79,30.51a1.31,1.31,0,0,1,1.1-1.21h3.21c.53,0,1,.67,1,1.21v7.08l-5.33-5.16ZM47.93,35.29H32.62v8.65H45.94v5.33H32.62V64.58H26V30h22Zm34.62,14.2a28.54,28.54,0,0,1-.29,3.92,14.31,14.31,0,0,1-.84,3.19,11.9,11.9,0,0,1-1.88,3.23,10.58,10.58,0,0,1-2.87,2.42,13.78,13.78,0,0,1-3.88,1.52,20.94,20.94,0,0,1-4.89.53A20.7,20.7,0,0,1,63,63.77a13.32,13.32,0,0,1-3.81-1.52,10.62,10.62,0,0,1-2.81-2.42,11.82,11.82,0,0,1-1.85-3.23,14.33,14.33,0,0,1-.94-3.19,27.89,27.89,0,0,1-.36-3.92V29.3h6.66V48.93a15.2,15.2,0,0,0,.82,5.71A6.41,6.41,0,0,0,63.57,58a10.09,10.09,0,0,0,8.84,0,6.25,6.25,0,0,0,2.73-3.31,15.18,15.18,0,0,0,.75-5.71V29.3h6.66Zm28,15.09-9.37-13.32h-4V64.58H90.54V30h10.51a37,37,0,0,1,4.84.24,18.29,18.29,0,0,1,3.84.86,10,10,0,0,1,4.69,3.43,9.45,9.45,0,0,1,1.65,5.72,9.54,9.54,0,0,1-2,6.11,12.42,12.42,0,0,1-6.2,3.71v.11l10.3,14.44Zm43.21,0h-6.58L136,48.44a81.3,81.3,0,0,1-6.13-9.83h-.16c.21,4.66.13,7.77.13,10.08V64.58h-6V30h6.49l11.34,16c2.47,3.51,4.48,6.66,6,9.33h.16c-.21-4.66,0-7.77,0-9.81V30h6Zm14.64,0h-6.66V30h6.66Zm33.29-29.29H190.4V64.58h-6V35.29H173.09V30h28.63Zm33.95,14.2a28.35,28.35,0,0,1-.31,3.92,14.31,14.31,0,0,1-.85,3.19,11.65,11.65,0,0,1-1.88,3.23,10.58,10.58,0,0,1-2.87,2.42,13.78,13.78,0,0,1-3.88,1.52,21,21,0,0,1-4.9.53,20.61,20.61,0,0,1-4.86-.53,13.26,13.26,0,0,1-3.82-1.52,10.42,10.42,0,0,1-2.8-2.42,11.59,11.59,0,0,1-1.86-3.23,13.81,13.81,0,0,1-.91-3.19,26.55,26.55,0,0,1-.35-3.92V29.3H213V48.93a15.25,15.25,0,0,0,.8,5.71A6.39,6.39,0,0,0,216.66,58a10.09,10.09,0,0,0,8.84,0,6.28,6.28,0,0,0,2.75-3.31,15.36,15.36,0,0,0,.76-5.71V29.3h6.66Zm28,15.09-9.38-13.32h-4.64V64.58h-6V30h10.47a37.14,37.14,0,0,1,4.85.24,18.58,18.58,0,0,1,3.84.86,10,10,0,0,1,4.68,3.43,9.45,9.45,0,0,1,1.65,5.72,9.59,9.59,0,0,1-2,6.11A12.32,12.32,0,0,1,261,50v.11l10.27,14.44Zm36.57,0H277V30h22v5.33h-16v8.65h14v5.33h-14v10h17.3Zm56-8a8.55,8.55,0,0,1-1.41,2.79,11,11,0,0,1-2.68,2.49,14,14,0,0,1-4.22,1.8c-.43.1-.9.19-1.4.28s-1.08.16-1.69.22-1.31.24-2.06.27-1.61.18-2.56.18h-10V30h12a20.39,20.39,0,0,1,6.19.72,11.07,11.07,0,0,1,3,1.45,9.38,9.38,0,0,1,2.13,2,8.11,8.11,0,0,1,1.24,2.36,8.43,8.43,0,0,1,.4,2.51,8.6,8.6,0,0,1-1,4.1,9.24,9.24,0,0,1-3.32,3.11v.1a17.12,17.12,0,0,1,2.35,1.12A7.45,7.45,0,0,1,355,49.07a7.09,7.09,0,0,1,1.18,2.12,7.92,7.92,0,0,1,.43,2.65A10.46,10.46,0,0,1,356.22,56.55Zm37.23,5.54a2,2,0,0,1-2.1,1.82h-9.22V53.74c0-.43-.08-.48-.51-.48h-4.88c-.43,0-.6.05-.6.48V63.91h-9a1.67,1.67,0,0,1-1.68-1.82V50.91L379.4,37l14.05,14Zm4.15-11.83a2.09,2.09,0,0,1-3,0L379.18,34.8,363.71,50.26a2.08,2.08,0,0,1-2.94-2.94l16.94-16.94a2.08,2.08,0,0,1,2.94,0l17,16.94A2.08,2.08,0,0,1,397.6,50.26Zm36.46,14.32h-6.87L416,48.44a81.3,81.3,0,0,1-6.13-9.83h-.15c.2,4.66.41,7.77.41,10.08V64.58h-6.66V30h6.86l11.34,16c2.47,3.51,4.48,6.66,6,9.33h.15c-.2-4.66-.41-7.77-.41-9.81V30h6.66Zm28.35,0-13.94-16H448v16h-6V30h6V45.27h.43l13-15.31h7.83L454.94,47.12l15.55,17.46Z"/><g id="Layer_2" data-name="Layer 2"><rect class="cls-2" x="356.84" y="24.04" width="44" height="43"/><path class="cls-3" d="M379.21,35.68,364.44,50.44V62.32a2,2,0,0,0,2,2h25.68a2,2,0,0,0,2-2V50.6L379.21,35.68m0-7.69a2.2,2.2,0,0,0-1.56.65l-18,18a2.22,2.22,0,0,0,1.57,3.78,2.2,2.2,0,0,0,1.56-.65l16.43-16.43,16.42,16.43a2.22,2.22,0,0,0,1.57.65,2.22,2.22,0,0,0,1.56-3.78l-18-18a2.21,2.21,0,0,0-1.56-.65m10.53-.26h-3.41a1,1,0,0,0-1,1v2l5.47,5.48V28.77a1,1,0,0,0-1-1"/><path class="cls-4" d="M370.65,55.11c2,2.35,9,7.47,9,7.47s7.15-5.16,9.13-7.56a6.72,6.72,0,0,0,1.45-3.84,5.72,5.72,0,0,0-10.54-3.07,5.71,5.71,0,0,0-10.53,3.07A6.85,6.85,0,0,0,370.65,55.11Z"/></g></g></svg>