<!-- Generator: Adobe Illustrator 23.1.1, SVG Export Plug-In  -->
<svg version="1.1" xmlns="http://www.w3.org/2000/svg" xmlns:xlink="http://www.w3.org/1999/xlink" x="0px" y="0px" width="26px"
	 height="92.6px" viewBox="0 0 26 92.6" style="enable-background:new 0 0 26 92.6;" xml:space="preserve">
<style type="text/css">
	.st0{fill:#3DB491;stroke:#333333;stroke-miterlimit:10;}
	.st1{fill:#FFFFFF;}
	.st2{fill:#E92529;}
</style>
<defs>
</defs>
<g>
	<path class="st0" d="M0.5,79.6V13C0.5,6.1,6.1,0.5,13,0.5l0,0c6.9,0,12.5,5.6,12.5,12.5v66.6c0,6.9-5.6,12.5-12.5,12.5l0,0
		C6.1,92.1,0.5,86.5,0.5,79.6z"/>
	<g>
		<path class="st1" d="M22.9,45.6c0,5.4-4.4,9.9-9.9,9.9s-9.9-4.4-9.9-9.9s4.4-9.9,9.9-9.9S22.9,40.2,22.9,45.6z"/>
		<path class="st2" d="M6.9,47.2c1.4,1.6,6.1,5.1,6.1,5.1s4.9-3.5,6.2-5.1c0.6-0.7,0.9-1.7,1-2.6c0-2.1-1.7-3.9-3.9-3.9
			c-1.3,0-2.6,0.7-3.3,1.8c-1.2-1.8-3.6-2.3-5.4-1.2c-1.1,0.7-1.8,2-1.8,3.3C5.9,45.5,6.3,46.4,6.9,47.2z"/>
	</g>
</g>
</svg>
