<!-- Generator: Adobe Illustrator 23.1.1, SVG Export Plug-In  -->
<svg version="1.1" xmlns="http://www.w3.org/2000/svg" xmlns:xlink="http://www.w3.org/1999/xlink" x="0px" y="0px" width="25.1px"
	 height="91.6px" viewBox="0 0 25.1 91.6" style="enable-background:new 0 0 25.1 91.6;" xml:space="preserve">
<style type="text/css">
	.st0{fill:#3DB591;}
	.st1{fill:#FFFFFF;}
	.st2{fill:#EB2227;}
</style>
<defs>
</defs>
<g>
	<path class="st0" d="M0,79.1l0-66.6C0,5.6,5.6,0,12.5,0h0c6.9,0,12.5,5.6,12.5,12.5v66.6c0,6.9-5.6,12.5-12.5,12.5h0
		C5.6,91.6,0,86,0,79.1z"/>
	<g>
		<path class="st1" d="M22.4,45.1c0,5.4-4.4,9.9-9.9,9.9s-9.9-4.4-9.9-9.9s4.4-9.9,9.9-9.9S22.4,39.7,22.4,45.1z"/>
		<path class="st2" d="M6.4,46.7c1.4,1.6,6.1,5.1,6.1,5.1s4.9-3.5,6.2-5.1c0.6-0.7,0.9-1.7,1-2.6c0-2.1-1.7-3.9-3.9-3.9
			c-1.3,0-2.6,0.7-3.3,1.8c-1.2-1.8-3.6-2.3-5.4-1.2c-1.1,0.7-1.8,2-1.8,3.3C5.4,45,5.8,45.9,6.4,46.7z"/>
	</g>
</g>
</svg>
