<!-- Generator: Adobe Illustrator 23.1.1, SVG Export Plug-In  -->
<svg version="1.1" xmlns="http://www.w3.org/2000/svg" xmlns:xlink="http://www.w3.org/1999/xlink" x="0px" y="0px" width="520.8px"
	 height="162.6px" viewBox="0 0 520.8 162.6" style="enable-background:new 0 0 520.8 162.6;" xml:space="preserve">
<style type="text/css">
	.st0{fill-rule:evenodd;clip-rule:evenodd;fill:#3FB692;}
	.st1{fill-rule:evenodd;clip-rule:evenodd;fill:#FFFFFF;}
	.st2{fill-rule:evenodd;clip-rule:evenodd;fill:#333333;}
	.st3{fill:#333333;}
</style>
<defs>
</defs>
<g>
	<path class="st0" d="M207,145.6c-17.2,29.7-63.4,18-63.4-17.2c0-18.8,14.9-33.6,33.6-33.6C203.9,94.7,219.6,122.9,207,145.6z
		 M153.8,128.4c0,21.1,25.8,31.3,40.7,16.4c8.6-8.6,8.6-24.3,0-32.9C179.7,97.1,153.8,107.3,153.8,128.4z M159.3,118.2
		c0.8,0.8,1.6,2.3,3.1,3.9c-2.3,0-3.9,0-4.7,0C157.7,121.3,158.5,119.8,159.3,118.2z M164.8,111.9c1.6,0.8,3.9,2.3,6.3,4.7
		c0,1.6,0,3.1,0,4.7c-2.3,0-3.9,0-5.5,0.8c-2.3-3.1-3.9-5.5-4.7-6.3C161.7,114.3,163.2,112.7,164.8,111.9z M167.9,124.5
		c0.8,0,1.6,0,2.3,0v0.8c0,0.8,0,0.8-0.8,0.8C169.5,126,168.7,125.2,167.9,124.5z M169.5,130.7c0.8,0,0.8,0,0.8,0.8v0.8
		c-0.8,0-1.6,0-2.3,0C168.7,131.5,169.5,130.7,169.5,130.7z M171.8,108c0,1.6-0.8,3.1-0.8,5.5c-1.6-1.6-2.3-2.3-3.9-3.1
		C168.7,109.6,170.3,108.8,171.8,108z M173.4,119c0.8,0.8,1.6,0.8,2.3,1.6c-0.8,0-0.8,0.8-0.8,0.8c-0.8,0-0.8,0-1.6,0
		C173.4,120.6,173.4,119.8,173.4,119z M181.2,115.1c-1.6,1.6-2.3,2.3-3.9,3.9c-0.8-1.6-2.3-2.3-3.1-3.9c0-3.1,0-6.3,0-7
		c2.3-0.8,4.7-0.8,6.3,0C180.4,108.8,181.2,111.9,181.2,115.1z M181.2,121.3h-0.8l-0.8-0.8c0.8-0.8,0.8-0.8,1.6-1.6
		C181.2,119.8,181.2,120.6,181.2,121.3z M187.5,110.4c-0.8,0.8-2.3,1.6-3.9,3.1c0-2.3,0-3.9,0-5.5
		C185.1,108.8,185.9,109.6,187.5,110.4z M194.5,115.9c-1.6,0.8-3.1,3.1-5.5,6.3c-1.6-0.8-3.1-0.8-4.7-0.8c0-1.6,0-3.1,0-4.7
		c2.3-2.3,4.7-3.9,5.5-4.7C191.4,112.7,193,114.3,194.5,115.9z M184.3,124.5c0.8,0,1.6,0,2.3,0c0,0.8-0.8,1.6-1.6,1.6
		c0,0,0,0-0.8-0.8V124.5z M184.3,131.5c0.8-0.8,0.8-0.8,0.8-0.8c0.8,0,1.6,0.8,1.6,1.6c-0.8,0-1.6,0-2.3,0V131.5z M197.7,122.1
		c-1.6,0-3.1,0-4.7,0c0.8-1.6,2.3-3.1,3.1-3.9C196.9,119.8,196.9,121.3,197.7,122.1z M198.4,131.5c-1.6,0-4.7,0-7.8,0.8
		c-1.6-1.6-2.3-2.3-3.1-3.9c0.8-1.6,1.6-2.3,3.1-3.9c3.1,0.8,6.3,0.8,7.8,0.8C198.4,127.6,198.4,129.2,198.4,131.5z M196.1,138.6
		c-0.8-0.8-2.3-2.3-3.1-3.9c1.6,0,3.1,0,4.7-0.8C196.9,135.4,196.9,137,196.1,138.6z M189.8,144.8c-0.8-0.8-3.1-2.3-5.5-4.7
		c0-1.6,0-3.1,0-4.7c1.6,0,3.1-0.8,4.7-0.8c2.3,3.1,3.9,4.7,5.5,6.3C193,142.5,191.4,144,189.8,144.8z M183.6,148.7
		c0-1.6,0-3.1,0-5.5c1.6,1.6,3.1,2.3,3.9,3.1C185.9,147.2,185.1,147.9,183.6,148.7z M181.2,137.8c-0.8-0.8-0.8-0.8-1.6-1.6l0.8-0.8
		h0.8C181.2,136.2,181.2,137,181.2,137.8z M174.2,140.9c0.8-0.8,2.3-1.6,3.1-3.1c1.6,1.6,2.3,2.3,3.9,3.1c0,3.9-0.8,6.3-0.8,7.8
		c-1.6,0.8-3.9,0.8-6.3,0C174.2,147.2,174.2,144.8,174.2,140.9z M173.4,135.4c0.8,0,0.8,0,1.6,0c0,0,0,0.8,0.8,0.8
		c-0.8,0.8-1.6,0.8-2.3,1.6C173.4,137,173.4,136.2,173.4,135.4z M173.4,128.4c0-2.3,1.6-3.9,3.9-3.9c3.9,0,5.5,3.9,3.1,7
		C178.1,133.9,173.4,132.3,173.4,128.4z M167.1,146.4c1.6-0.8,2.3-1.6,3.9-3.1c0,2.3,0.8,3.9,0.8,5.5
		C170.3,147.9,168.7,147.2,167.1,146.4z M160.9,140.9c0.8-1.6,2.3-3.1,4.7-6.3c1.6,0,3.1,0.8,5.5,0.8c0,1.6,0,3.1,0,4.7
		c-2.3,2.3-4.7,3.9-6.3,4.7C163.2,144,161.7,142.5,160.9,140.9z M157.7,133.9c0.8,0.8,2.3,0.8,4.7,0.8c-1.6,1.6-2.3,3.1-3.1,3.9
		C158.5,137,157.7,135.4,157.7,133.9z M157,131.5c0-2.3,0-3.9,0-6.3c1.6,0,3.9,0,7.8-0.8c0.8,1.6,1.6,2.3,3.1,3.9
		c-1.6,1.6-2.3,2.3-3.1,3.9C160.9,131.5,158.5,131.5,157,131.5z"/>
	<path class="st0" d="M479.4,145.7c-17.2,29.7-63.4,18-63.4-17.2c0-18.8,14.9-33.6,33.6-33.6C476.3,94.8,492,123,479.4,145.7z
		 M426.2,128.5c0,21.1,25.8,31.3,40.7,16.4c8.6-8.6,8.6-24.3,0-32.9C452.1,97.2,426.2,107.3,426.2,128.5z M431.7,118.3
		c0.8,0.8,1.6,2.3,3.1,3.9c-2.3,0-3.9,0-4.7,0C430.1,121.4,430.9,119.9,431.7,118.3z M437.2,112c1.6,0.8,3.9,2.3,6.3,4.7
		c0,1.6,0,3.1,0,4.7c-2.3,0-3.9,0-5.5,0.8c-2.3-3.1-3.9-5.5-4.7-6.3C434.1,114.4,435.6,112.8,437.2,112z M440.3,124.6
		c0.8,0,1.6,0,2.3,0v0.8c0,0.8,0,0.8-0.8,0.8C441.9,126.1,441.1,125.3,440.3,124.6z M441.9,130.8c0.8,0,0.8,0,0.8,0.8v0.8
		c-0.8,0-1.6,0-2.3,0C441.1,131.6,441.9,130.8,441.9,130.8z M444.2,108.1c0,1.6-0.8,3.1-0.8,5.5c-1.6-1.6-2.3-2.3-3.9-3.1
		C441.1,109.7,442.7,108.9,444.2,108.1z M445.8,119.1c0.8,0.8,1.6,0.8,2.3,1.6c-0.8,0-0.8,0.8-0.8,0.8c-0.8,0-0.8,0-1.6,0
		C445.8,120.6,445.8,119.9,445.8,119.1z M453.6,115.2c-1.6,1.6-2.3,2.3-3.9,3.9c-0.8-1.6-2.3-2.3-3.1-3.9c0-3.1,0-6.3,0-7
		c2.3-0.8,4.7-0.8,6.3,0C452.8,108.9,453.6,112,453.6,115.2z M453.6,121.4h-0.8l-0.8-0.8c0.8-0.8,0.8-0.8,1.6-1.6
		C453.6,119.9,453.6,120.6,453.6,121.4z M459.9,110.5c-0.8,0.8-2.3,1.6-3.9,3.1c0-2.3,0-3.9,0-5.5
		C457.5,108.9,458.3,109.7,459.9,110.5z M466.9,115.9c-1.6,0.8-3.1,3.1-5.5,6.3c-1.6-0.8-3.1-0.8-4.7-0.8c0-1.6,0-3.1,0-4.7
		c2.3-2.3,4.7-3.9,5.5-4.7C463.8,112.8,465.4,114.4,466.9,115.9z M456.7,124.6c0.8,0,1.6,0,2.3,0c0,0.8-0.8,1.6-1.6,1.6
		c0,0,0,0-0.8-0.8V124.6z M456.7,131.6c0.8-0.8,0.8-0.8,0.8-0.8c0.8,0,1.6,0.8,1.6,1.6c-0.8,0-1.6,0-2.3,0V131.6z M470.1,122.2
		c-1.6,0-3.1,0-4.7,0c0.8-1.6,2.3-3.1,3.1-3.9C469.3,119.9,469.3,121.4,470.1,122.2z M470.8,131.6c-1.6,0-4.7,0-7.8,0.8
		c-1.6-1.6-2.3-2.3-3.1-3.9c0.8-1.6,1.6-2.3,3.1-3.9c3.1,0.8,6.3,0.8,7.8,0.8C470.8,127.7,470.8,129.3,470.8,131.6z M468.5,138.6
		c-0.8-0.8-2.3-2.3-3.1-3.9c1.6,0,3.1,0,4.7-0.8C469.3,135.5,469.3,137.1,468.5,138.6z M462.2,144.9c-0.8-0.8-3.1-2.3-5.5-4.7
		c0-1.6,0-3.1,0-4.7c1.6,0,3.1-0.8,4.7-0.8c2.3,3.1,3.9,4.7,5.5,6.3C465.4,142.6,463.8,144.1,462.2,144.9z M456,148.8
		c0-1.6,0-3.1,0-5.5c1.6,1.6,3.1,2.3,3.9,3.1C458.3,147.2,457.5,148,456,148.8z M453.6,137.9c-0.8-0.8-0.8-0.8-1.6-1.6l0.8-0.8h0.8
		C453.6,136.3,453.6,137.1,453.6,137.9z M446.6,141c0.8-0.8,2.3-1.6,3.1-3.1c1.6,1.6,2.3,2.3,3.9,3.1c0,3.9-0.8,6.3-0.8,7.8
		c-1.6,0.8-3.9,0.8-6.3,0C446.6,147.2,446.6,144.9,446.6,141z M445.8,135.5c0.8,0,0.8,0,1.6,0c0,0,0,0.8,0.8,0.8
		c-0.8,0.8-1.6,0.8-2.3,1.6C445.8,137.1,445.8,136.3,445.8,135.5z M445.8,128.5c0-2.3,1.6-3.9,3.9-3.9c3.9,0,5.5,3.9,3.1,7
		C450.5,133.9,445.8,132.4,445.8,128.5z M439.5,146.5c1.6-0.8,2.3-1.6,3.9-3.1c0,2.3,0.8,3.9,0.8,5.5
		C442.7,148,441.1,147.2,439.5,146.5z M433.3,141c0.8-1.6,2.3-3.1,4.7-6.3c1.6,0,3.1,0.8,5.5,0.8c0,1.6,0,3.1,0,4.7
		c-2.3,2.3-4.7,3.9-6.3,4.7C435.6,144.1,434.1,142.6,433.3,141z M430.1,133.9c0.8,0.8,2.3,0.8,4.7,0.8c-1.6,1.6-2.3,3.1-3.1,3.9
		C430.9,137.1,430.1,135.5,430.1,133.9z M429.4,131.6c0-2.3,0-3.9,0-6.3c1.6,0,3.9,0,7.8-0.8c0.8,1.6,1.6,2.3,3.1,3.9
		c-1.6,1.6-2.3,2.3-3.1,3.9C433.3,131.6,430.9,131.6,429.4,131.6z"/>
	<path class="st1" d="M359.4,70.3c3.1,0,5.5-2.3,5.5-5.5v-7c0-3.1-2.3-5.5-4.7-5.5l-15.6-20.3c-5.5-7-14.9-11.7-24.3-11.7h-43v50.1
		H359.4L359.4,70.3z"/>
	<path class="st2" d="M514.4,99.2h-11c-2.3-7.8-10.2-15.6-21.1-20.3c0,0-35.2-36-96.2-32.1c0,0-22.7-18.8-31.3-37.6
		c0,0-190.1-52.4-241,92.3c0,0-22.7,1.6-22.7,11c0,11-3.9,13.3,7,14.1l-0.8,8.6c0,0,32.1,3.9,47.7-28.2c15.6-32.9,79-18.8,76.7,28.2
		c0,0,91.6,8.6,177.6,3.9c0,0,10.2,2.3,12.5-15.6c1.6-17.2,16.4-36.8,39.1-36.8c22.7,0,40.7,39.1,50.9,41.5c0,0,0.8-4.7,1.6-9.4h11
		C523,118.8,523,99.2,514.4,99.2z M278,82c0,1.6,1.6,2.3,2.3,2.3h14.1v11.7c0,1.6,0.8,2.3,2.3,2.3s2.3-0.8,2.3-2.3V82
		c0-1.6-0.8-2.3-2.3-2.3h-16.4C279.6,79.7,278,80.5,278,82z M355.5,52.3h-15.6v9.4c0,1.6,0.8,3.9,1.6,4.7h-61v-43h39.9
		c8.6,0,16.4,3.9,21.1,11L355.5,52.3z M361,64.8c0,0.8-0.8,1.6-1.6,1.6h-11c-2.3,0-5.5-2.3-5.5-4.7v-5.5h16.4c0.8,0,1.6,0.8,1.6,1.6
		V64.8z"/>
	<path class="st3" d="M5.4,63.5c-0.5,1.5-0.8,3.1-0.8,4.8c0,9.4,7.7,17.1,17.1,17.1c2.8,0,5.3-0.7,7.6-1.8c1.8,7,7.8,12.3,15.4,12.8
		c0.6,0,1.2-0.1,1.8-0.1c2.7,5.3,7.7,9.1,13.8,10c0.4,6.3,5.7,11.4,12.2,11.4c6.8,0,12.3-5.5,12.3-12.3c0-4-2-7.6-5-9.8
		c1-2.3,1.6-4.8,1.6-7.5c0-3.9-1.2-7.5-3.3-10.5c2.4-3,3.9-6.7,3.9-10.8c0-8.4-6.1-15.4-14.1-16.8c0.3-1.3,0.5-2.6,0.5-4
		c0-9.4-7.7-17.1-17.1-17.1c-1.9,0-3.7,0.4-5.4,1c-3.1-4.3-8.1-7.1-13.8-7.1c-7.5,0-13.8,4.8-16.1,11.5c-8.9,0.6-16,7.9-16,17
		C0,56.1,2,60.4,5.4,63.5z"/>
</g>
</svg>
