<!-- Generator: Adobe Illustrator 23.1.1, SVG Export Plug-In  -->
<svg version="1.1" xmlns="http://www.w3.org/2000/svg" xmlns:xlink="http://www.w3.org/1999/xlink" x="0px" y="0px" width="81px"
	 height="52.5px" viewBox="0 0 81 52.5" style="enable-background:new 0 0 81 52.5;" xml:space="preserve">
<style type="text/css">
	.st0{fill:#333333;}
</style>
<defs>
</defs>
<path class="st0" d="M0,0v48.3h1.4v4.2h5.5v-4.2h67.2v4.2h5.5v-4.2H81V0H0z M5.9,51.5H2.4v-3.2h3.5V51.5z M78.6,51.5h-3.5v-3.2h3.5
	V51.5z M80,47.3h-0.4h-5.5H6.9H1.4H1V1h79V47.3z M11.3,9.2h1v29.9h-1V9.2z M22.8,9.2h1v29.9h-1V9.2z M34.3,9.2h1v29.9h-1V9.2z
	 M45.7,9.2h1v29.9h-1V9.2z M57.2,9.2h1v29.9h-1V9.2z M68.7,9.2h1v29.9h-1V9.2z"/>
</svg>
