<!-- Generator: Adobe Illustrator 23.1.1, SVG Export Plug-In  -->
<svg version="1.1" xmlns="http://www.w3.org/2000/svg" xmlns:xlink="http://www.w3.org/1999/xlink" x="0px" y="0px" width="136.5px"
	 height="199.2px" viewBox="0 0 136.5 199.2" style="enable-background:new 0 0 136.5 199.2;" xml:space="preserve">
<style type="text/css">
	.st0{fill:#3DB591;}
	.st1{fill:#333333;}
</style>
<defs>
</defs>
<g>
	<path class="st0" d="M134.7,187.8c-1.5-1.2-2.9-2.6-3.8-4.3c-0.7-1.5-0.9-3.4-1-5.1c-1-17.4-2-34.6-2.9-52
		c-0.5-10.1-1.2-20.1-3.1-30c-1.2-5.6-2.7-11.1-6.1-15.7c-6.7-9-25.9-12.1-40.8-13.3c0.2-0.2,0.3-0.2,0.5-0.3
		c1.4-0.9,2.9-2.4,2.2-3.8c-0.7-1.2-2.7-1.9-1.9-2.9c4.3-1.9,8.4-3.8,12.6-5.5c0.2-0.3,0.7-0.5,0.7-0.9c0-0.3-0.2-0.5-0.3-0.9
		c-2-3.1-4.6-6.3-8.2-6.1c-4.4,0.2-7.5,5.6-11.9,6c0-0.2,0.2-0.5,0.2-0.7c0.9-3.9-2.7-7.5-6.5-6.5c0,0,0,0-0.2,0
		c-2.9,0.7-5.5,3.2-5.3,6.3c-2.2-0.7-4.4-1.4-6.8-1.9c-3.1-0.7-5.6,2.2-4.8,5.1l0,0c0.7,2.4,1.9,4.4,3.6,6c2,2,4.3,3.9,6.3,6
		c-14.3,1.4-32.1,4.4-38.6,13.3c-3.4,4.6-4.9,10.2-6.1,15.7c-2,9.9-2.6,20-3.1,30c-1,17.4-2,34.6-2.9,52c-0.2,1.7-0.2,3.6-1,5.1
		c-0.9,1.7-2.2,2.9-3.8,4.3c-3.1,2.6-2,7.5,1.9,8.5c2.7,0.7,5.8,1,8.7,1c14.7,0.5,29.5,1,44.2,1.5c3.9,0.2,7.7,0.3,11.6,0.2
		c3.9,0,7.7-0.2,11.6-0.2c14.7-0.5,29.5-1,44.2-1.5c2.9-0.2,5.8-0.3,8.7-1C136.8,195.3,137.8,190.4,134.7,187.8z M35.1,92.3
		c-3.6-7.2,21.3-21.2,21.3-21.2S38.7,99.6,35.1,92.3z M68.3,103.5c-7.7-2.6,0-30.2,0-30.2S76,106.1,68.3,103.5z M99.9,92.3
		c-3.6,7.3-21.3-21.2-21.3-21.2S103.7,85.1,99.9,92.3z"/>
	<path class="st0" d="M113,32.7c-0.8-0.2-1.6,0.3-1.8,1.1c-0.2,0.8,0.3,1.6,1,1.8c1.5,0.4,2.6,1.5,3.1,2.9c0.5,1.4,0.5,3.3-3.2,6
		c-4,2.9-5.5,6-4.3,9.4c0.8,2.2,2.5,4,4.7,4.7c0.8,0.3,1.6-0.1,1.9-0.9c0.3-0.8-0.1-1.6-0.9-1.9c-1.3-0.5-2.4-1.5-2.9-2.9
		c-0.5-1.4-0.5-3.3,3.2-6c4-2.9,5.5-6,4.4-9.4C117.4,35.2,115.5,33.3,113,32.7z M32.6,19.7c-0.8-0.2-1.6,0.3-1.8,1.1
		c-0.2,0.8,0.3,1.6,1,1.8c1.5,0.4,2.6,1.5,3.1,2.9c0.5,1.4,0.5,3.3-3.2,6c-4,2.9-5.5,6-4.4,9.4c0.8,2.2,2.5,4,4.7,4.7
		c0.8,0.3,1.6-0.1,1.9-0.9S33.8,43,33,42.7c-1.3-0.5-2.4-1.5-2.9-2.9c-0.5-1.4-0.5-3.3,3.2-6c4-2.9,5.5-6,4.3-9.4
		C36.9,22.1,35,20.3,32.6,19.7z M56.5,0c-0.8-0.2-1.6,0.3-1.8,1.1c-0.2,0.8,0.3,1.6,1,1.8c1.5,0.4,2.6,1.5,3.1,2.9
		c0.5,1.4,0.5,3.3-3.2,6c-4,2.9-5.5,6-4.3,9.4c0.8,2.2,2.5,4,4.7,4.7c0.8,0.3,1.6-0.1,1.9-0.9s-0.1-1.6-0.9-1.9
		c-1.3-0.5-2.4-1.5-2.9-2.9c-0.5-1.4-0.5-3.3,3.2-6c4-2.9,5.5-6,4.4-9.4C60.8,2.5,58.9,0.7,56.5,0z M84.7,14.8
		c-0.8-0.2-1.6,0.3-1.8,1.1c-0.2,0.8,0.3,1.6,1,1.8c1.5,0.4,2.6,1.5,3.1,2.9c0.5,1.4,0.5,3.3-3.2,6c-4,2.9-5.5,6-4.3,9.4
		c0.8,2.2,2.5,4,4.7,4.7c0.8,0.3,1.6-0.1,1.9-0.9c0.3-0.8-0.1-1.6-0.9-1.9c-1.3-0.5-2.4-1.5-2.9-2.9c-0.5-1.4-0.5-3.3,3.2-6
		c4-2.9,5.5-6,4.3-9.4C89.1,17.3,87.2,15.5,84.7,14.8z"/>
	<path class="st1" d="M64.7,35.9c1.1,1.1,2.9,1.2,4,0.1l0,0c0.2-0.2,0.4-0.4,0.5-0.7l2.7-0.1c0.9,0,1.7-0.4,2.3-1.1
		c0.6-0.7,0.9-1.5,0.9-2.4c-0.1-1.9-1.6-3.3-3.5-3.2l-3.7,0.2c-0.7,0-1.3,0.3-1.8,0.6c-1.1-1.1-2.8-1.1-3.9-0.1l0,0
		c-1.1,1.1-1.2,2.9-0.1,4L64.7,35.9z M68,30l3.7-0.1h0.1c1.1,0,1.9,0.8,2,1.9c0,1.1-0.8,2-1.9,2.1h-2.4c0-0.7-0.3-1.4-0.8-1.9
		l-1.6-1.7C67.4,30.1,67.7,30,68,30z M31.7,62.2c1.1-1.1,1-2.9-0.1-4l0,0c-1.1-1-2.8-1-3.9,0.1c-0.5-0.3-1.1-0.6-1.8-0.6l-3.7-0.2
		c-1.9-0.1-3.4,1.3-3.5,3.2c0,0.9,0.3,1.7,0.9,2.4c0.6,0.7,1.4,1.1,2.3,1.1l2.7,0.1c0.1,0.3,0.3,0.5,0.5,0.7l0,0
		c1.1,1.1,2.9,1,4-0.1L31.7,62.2z M26.7,59.3L25.1,61c-0.5,0.5-0.8,1.2-0.8,1.9h-2.4c-1.1-0.1-1.9-1-1.9-2.1c0.1-1.1,0.9-1.9,2-1.9
		h0.1l3.7,0.1C26.1,59,26.4,59.1,26.7,59.3z M100.5,117.5c1.1,1.1,2.9,1.2,4,0.1l0,0c0.2-0.2,0.4-0.4,0.5-0.7l2.7-0.1
		c0.9,0,1.7-0.4,2.3-1.1c0.6-0.7,0.9-1.5,0.9-2.4c-0.1-1.9-1.6-3.3-3.5-3.2l-3.7,0.2c-0.7,0-1.3,0.3-1.8,0.6
		c-1.1-1.1-2.8-1.1-3.9-0.1l0,0c-1.1,1.1-1.2,2.9-0.1,4L100.5,117.5z M103.8,111.6l3.7-0.1h0.1c1.1,0,1.9,0.8,2,1.9
		c0,1.1-0.8,2-1.9,2.1h-2.4c0-0.7-0.3-1.4-0.8-1.9l-1.6-1.7C103.2,111.7,103.5,111.6,103.8,111.6z"/>
</g>
</svg>
