<svg xmlns="http://www.w3.org/2000/svg" viewBox="0 0 195.09 495.54"><defs><style>.cls-1{fill:#3db591;}.cls-2{fill:#fff;}.cls-3{fill:#eb2227;}</style></defs><title>Asset 1</title><g id="Layer_2" data-name="Layer 2"><g id="Layer_1-2" data-name="Layer 1"><g id="Layer_1-2-2" data-name="Layer 1-2"><path class="cls-1" d="M195.09,140.57l-.6,129.69c-.21.88-.44,1.77-.63,2.66a17.63,17.63,0,0,1-18,13.91c-9.67-.44-17-8.35-16.91-18.5q.21-54.82.49-109.65v-3.34h-9.18v4.26q-.7,154.31-1.43,308.62a54.17,54.17,0,0,1-.19,5.56C147.27,491,128,501.09,113.07,492.3c-8.52-5-12.07-12.77-12-22.59q.51-89.05.86-178.1v-3.82l-9.79-.05v3.67Q91.7,380,91.31,468.68c0,1.3,0,2.6-.07,3.89a23.78,23.78,0,0,1-32.35,21c-9.71-3.74-15.34-12.49-15.3-23.84l1.32-311.12v-3.7H35.79v3.55q-.26,53.85-.52,107.7a28.91,28.91,0,0,1-.62,6.62A17.57,17.57,0,0,1,0,268.1Q.24,205.07.6,142c.2-28.47,22.61-51.46,51.05-51.72,30.93-.28,61.86-.06,92.79.42C167.37,91.1,187,107,193,129.15,194,132.88,194.4,136.76,195.09,140.57Z"/><path class="cls-1" d="M97.21,0a40.68,40.68,0,1,1-40.7,40.66v-.15A40.63,40.63,0,0,1,97.21,0Z"/><path class="cls-2" d="M121.26,120.61a21.15,21.15,0,1,1-21.15,21.15v-.09A21.13,21.13,0,0,1,121.26,120.61Z"/><path class="cls-3" d="M108.86,144.18c2.73,3.21,12.31,10.19,12.31,10.19s9.74-7,12.45-10.32a9.13,9.13,0,0,0,2-5.23,7.8,7.8,0,0,0-14.37-4.18,7.79,7.79,0,0,0-14.36,4.18A9.35,9.35,0,0,0,108.86,144.18Z"/></g></g></g></svg>