<!-- Generator: Adobe Illustrator 23.1.1, SVG Export Plug-In  -->
<svg version="1.1" xmlns="http://www.w3.org/2000/svg" xmlns:xlink="http://www.w3.org/1999/xlink" x="0px" y="0px" width="518.6px"
	 height="95.7px" viewBox="0 0 518.6 95.7" style="enable-background:new 0 0 518.6 95.7;" xml:space="preserve">
<style type="text/css">
	.st0{fill:#3FB692;}
	.st1{fill:#FFFFFF;}
	.st2{fill:#EB2227;}
</style>
<defs>
</defs>
<g>
	<rect class="st0" width="518.6" height="95.7"/>
	<g>
		<path class="st1" d="M38.5,28.2c7.1,0,10.8,4.7,10.8,9.9c0,4.1-2,7.2-5.9,8.7c2.1,1.4,3.1,2.2,6.5,7.4l6.2,9.5h-6l-5.6-8.7
			c-3.6-5.6-5.8-6.7-8.3-6.7h-2.3v15.4h-5.1V28.2H38.5z M33.8,43.7h3.3c3.7,0,7-0.9,7-5.7c0-3.4-2.1-5.4-5.9-5.4h-4.3V43.7z"/>
		<path class="st1" d="M80.1,28.2v4.5h-15v10.8h14.5V48H65.1v11h15.5v4.6H60V28.2H80.1z"/>
		<path class="st1" d="M108.9,63.5c4.4,2.2,7.9,3.1,10.4,3.1c1,0,1.7-0.2,3.4-0.7l0.1,0.1l-5,4.9c-6-0.6-13.4-3.9-20.9-8.2
			c-7.4-3.1-11.4-9.3-11.4-16.7c0-10.9,8.4-18.3,19-18.3c12.6,0,19.1,9.4,19.1,18.1C123.6,54.3,117.8,61.8,108.9,63.5z M104.6,59.3
			c8,0,13.8-5.4,13.8-13.4c0-6.3-4.5-13.4-13.9-13.4c-9.3,0-13.7,6.6-13.7,13.5C90.8,53.5,96.6,59.3,104.6,59.3z"/>
		<path class="st1" d="M134.5,28.2v20.5c0,7.9,3.4,10.9,10.2,10.9s10.1-3.2,10.1-10.9V28.2h5.1v20.5c0,9.7-4.9,15.4-15.2,15.4
			c-9.8,0-15.3-4.9-15.3-15.4V28.2H134.5z"/>
		<path class="st1" d="M187.3,28.2v4.5h-15v10.8h14.5V48h-14.5v11h15.5v4.6h-20.6V28.2H187.3z"/>
		<path class="st1" d="M211.5,30.2V36c-2.4-2.3-5.1-3.7-8.3-3.7c-3.2,0-5.2,1.7-5.2,4.1c0,2,0.4,3.7,5.8,6.8
			c7.5,4.3,9.1,6.8,9.1,11.6c0,5.2-4.1,9.3-10.3,9.3c-3.5,0-6.8-1.2-9.6-3.3v-6.4c2.5,3.3,5.9,5.2,9.6,5.2c3,0,5.2-1.9,5.2-4.7
			c0-2.4-0.7-4-7.7-8.1c-5.3-3.1-7.2-5.9-7.2-10.2c0-5,4.4-8.8,10.5-8.8C206.3,27.7,209.1,28.6,211.5,30.2z"/>
		<path class="st1" d="M245.7,28.2v4.5h-12.4v31h-5.1v-31h-12.2v-4.5H245.7z"/>
		<path class="st1" d="M333.6,28.2c7.2,0,11.5,3.8,11.5,10c0,7-4.7,10-12.4,10h-4.9v15.4h-5.1V28.2H333.6z M327.9,43.8h4.7
			c5.9,0,7.3-2.3,7.3-5.7c0-3.3-1.7-5.5-7.3-5.5h-4.7V43.8z"/>
		<path class="st1" d="M355.6,28.2v35.5h-5.1V28.2H355.6z"/>
		<path class="st1" d="M393.5,30.6V36c-3.8-2.1-8-3.5-12.3-3.5c-8.7,0-14,6.6-14,13.6c0,7,5.1,13.4,14,13.4c4.6,0,8.8-1.4,12.7-4V61
			c-4.2,2.2-8.4,3.1-12.9,3.1c-13.1,0-19.1-9.8-19.1-18.1c0-10.4,8.6-18.3,19.2-18.3C385,27.7,389.2,28.7,393.5,30.6z"/>
		<path class="st1" d="M405.2,28.2v16.2l14.9-16.2h6.3L411.1,45l19.2,18.7h-7l-18.1-17.5v17.5h-5.1V28.2H405.2z"/>
		<path class="st1" d="M437.2,28.2v20.5c0,7.9,3.4,10.9,10.2,10.9s10.1-3.2,10.1-10.9V28.2h5.1v20.5c0,9.7-4.9,15.4-15.2,15.4
			c-9.8,0-15.3-4.9-15.3-15.4V28.2H437.2z"/>
		<path class="st1" d="M480.8,28.2c7.2,0,11.5,3.8,11.5,10c0,7-4.7,10-12.4,10H475v15.4h-5.1V28.2H480.8z M475,43.8h4.7
			c5.9,0,7.3-2.3,7.3-5.7c0-3.3-1.7-5.5-7.3-5.5H475V43.8z"/>
	</g>
	<g>
		<rect x="260.3" y="24" class="st0" width="44" height="43"/>
		<path class="st1" d="M282.7,35.7l-14.8,14.8v11.9c0,1.1,0.9,2,2,2h25.7c1.1,0,2-0.9,2-2V50.6L282.7,35.7 M282.7,28
			c-0.6,0-1.1,0.2-1.6,0.6l-18,18c-0.9,0.9-0.9,2.3,0,3.1c0.4,0.4,1,0.6,1.6,0.6c0.6,0,1.1-0.2,1.6-0.7l16.4-16.4l16.4,16.4
			c0.4,0.4,1,0.7,1.6,0.7c1.2,0,2.2-1,2.2-2.2c0-0.6-0.2-1.1-0.6-1.5l-18-18C283.9,28.2,283.3,28,282.7,28 M293.2,27.7h-3.4
			c-0.6,0-1,0.4-1,1v2l5.5,5.5v-7.4C294.3,28.2,293.8,27.7,293.2,27.7"/>
		<path class="st2" d="M274.2,55.1c2,2.3,9,7.5,9,7.5s7.1-5.2,9.1-7.6c0.9-1.1,1.4-2.4,1.5-3.8c0-3.2-2.6-5.7-5.7-5.7
			c-1.9,0-3.8,1-4.8,2.6c-1.7-2.7-5.2-3.4-7.9-1.8c-1.7,1-2.7,2.9-2.6,4.8C272.7,52.6,273.3,54,274.2,55.1z"/>
	</g>
</g>
</svg>
